<svg width="422" height="344" viewBox="0 0 422 344" fill="none" xmlns="http://www.w3.org/2000/svg">
<path d="M267 85C264.5 53 235.5 27 199.5 27C158 27 129 56 129 82.5C129 100 143.5 112.5 161.5 112.5H230C253.5 112.5 263.5 131.5 263.5 143.5C263.5 172.5 236 206.5 199 234C159.5 204 135 170 131.5 138.5" stroke="url(#paint0_linear_58_45)" stroke-width="19" stroke-linecap="round" stroke-linejoin="round"/>
<path d="M256 177L297 222.5" stroke="url(#paint1_linear_58_45)" stroke-width="19" stroke-linecap="round" stroke-linejoin="round"/>
<path d="M194.5 144.5H184.5C183.948 144.5 183.5 144.948 183.5 145.5V156.5C183.5 157.052 183.948 157.5 184.5 157.5H194.5C195.052 157.5 195.5 157.052 195.5 156.5V145.5C195.5 144.948 195.052 144.5 194.5 144.5Z" fill="#57AFE7"/>
<path d="M212.5 144.5H202.5C201.948 144.5 201.5 144.948 201.5 145.5V156.5C201.5 157.052 201.948 157.5 202.5 157.5H212.5C213.052 157.5 213.5 157.052 213.5 156.5V145.5C213.5 144.948 213.052 144.5 212.5 144.5Z" fill="#57AFE7"/>
<path d="M194.5 163H184.5C183.948 163 183.5 163.448 183.5 164V174.5C183.5 175.052 183.948 175.5 184.5 175.5H194.5C195.052 175.5 195.5 175.052 195.5 174.5V164C195.5 163.448 195.052 163 194.5 163Z" fill="#57AFE7"/>
<path d="M212.5 163H202.5C201.948 163 201.5 163.448 201.5 164V174.5C201.5 175.052 201.948 175.5 202.5 175.5H212.5C213.052 175.5 213.5 175.052 213.5 174.5V164C213.5 163.448 213.052 163 212.5 163Z" fill="#57AFE7"/>
<path d="M17.6377 302.998L27.9033 302C28.5212 305.445 29.7687 307.976 31.646 309.592C33.547 311.208 36.1016 312.016 39.3096 312.016C42.7077 312.016 45.2622 311.303 46.9731 309.877C48.7078 308.427 49.5752 306.74 49.5752 304.815C49.5752 303.58 49.2069 302.534 48.4702 301.679C47.7573 300.799 46.4979 300.039 44.6919 299.397C43.4562 298.97 40.6403 298.209 36.2441 297.116C30.5885 295.714 26.6201 293.991 24.3389 291.948C21.1309 289.072 19.5269 285.567 19.5269 281.433C19.5269 278.771 20.2754 276.288 21.7725 273.983C23.2933 271.654 25.4676 269.884 28.2954 268.672C31.147 267.46 34.5807 266.854 38.5967 266.854C45.1553 266.854 50.0861 268.292 53.3892 271.167C56.716 274.042 58.4626 277.88 58.6289 282.68L48.0781 283.144C47.6266 280.458 46.6523 278.534 45.1553 277.369C43.682 276.181 41.4601 275.587 38.4897 275.587C35.4243 275.587 33.0243 276.217 31.2896 277.476C30.1727 278.284 29.6143 279.365 29.6143 280.72C29.6143 281.955 30.137 283.013 31.1826 283.892C32.5133 285.009 35.7451 286.173 40.8779 287.385C46.0107 288.597 49.8009 289.857 52.2485 291.164C54.7199 292.447 56.6447 294.217 58.0229 296.475C59.425 298.708 60.126 301.477 60.126 304.78C60.126 307.774 59.2943 310.578 57.6309 313.192C55.9674 315.806 53.6149 317.754 50.5732 319.038C47.5316 320.297 43.7414 320.927 39.2026 320.927C32.5965 320.927 27.5231 319.406 23.9824 316.364C20.4417 313.299 18.3268 308.843 17.6377 302.998ZM76.4155 293.694L67.3262 292.055C68.348 288.395 70.1064 285.686 72.6016 283.928C75.0967 282.169 78.8037 281.29 83.7227 281.29C88.1901 281.29 91.5169 281.825 93.7031 282.894C95.8893 283.94 97.422 285.282 98.3013 286.922C99.2043 288.538 99.6558 291.52 99.6558 295.869L99.5488 307.56C99.5488 310.887 99.7033 313.346 100.012 314.938C100.345 316.507 100.951 318.194 101.83 320H91.9209C91.6595 319.335 91.3387 318.348 90.9585 317.042C90.7922 316.447 90.6733 316.055 90.6021 315.865C88.8911 317.529 87.0614 318.776 85.1128 319.608C83.1642 320.44 81.085 320.855 78.875 320.855C74.9779 320.855 71.9006 319.798 69.6431 317.683C67.4093 315.568 66.2925 312.895 66.2925 309.663C66.2925 307.524 66.8034 305.623 67.8252 303.96C68.847 302.273 70.2728 300.99 72.1025 300.11C73.9561 299.207 76.6175 298.423 80.0869 297.758C84.7682 296.879 88.0119 296.059 89.8179 295.298V294.3C89.8179 292.375 89.3426 291.009 88.3921 290.201C87.4416 289.369 85.6475 288.954 83.0098 288.954C81.2275 288.954 79.8374 289.31 78.8394 290.023C77.8413 290.712 77.0334 291.936 76.4155 293.694ZM89.8179 301.821C88.5347 302.249 86.5029 302.76 83.7227 303.354C80.9424 303.948 79.1245 304.53 78.269 305.101C76.9621 306.027 76.3086 307.204 76.3086 308.629C76.3086 310.031 76.8314 311.243 77.877 312.265C78.9225 313.287 80.2533 313.798 81.8691 313.798C83.6751 313.798 85.3979 313.204 87.0376 312.016C88.2495 311.113 89.0456 310.008 89.4258 308.701C89.6872 307.845 89.8179 306.217 89.8179 303.817V301.821ZM105.181 282.146H110.741V279.294C110.741 276.11 111.074 273.733 111.739 272.165C112.428 270.597 113.676 269.325 115.482 268.351C117.312 267.353 119.617 266.854 122.397 266.854C125.249 266.854 128.041 267.282 130.773 268.137L129.419 275.124C127.827 274.743 126.294 274.553 124.821 274.553C123.371 274.553 122.326 274.898 121.684 275.587C121.066 276.252 120.757 277.547 120.757 279.472V282.146H128.243V290.023H120.757V320H110.741V290.023H105.181V282.146ZM155.796 307.952L165.776 309.627C164.493 313.287 162.461 316.079 159.681 318.004C156.925 319.905 153.467 320.855 149.309 320.855C142.726 320.855 137.855 318.705 134.694 314.404C132.199 310.958 130.952 306.61 130.952 301.358C130.952 295.084 132.591 290.177 135.871 286.637C139.15 283.072 143.297 281.29 148.311 281.29C153.942 281.29 158.386 283.155 161.642 286.886C164.897 290.593 166.454 296.285 166.311 303.96H141.217C141.289 306.93 142.097 309.247 143.641 310.911C145.186 312.55 147.111 313.37 149.416 313.37C150.984 313.37 152.303 312.942 153.372 312.087C154.441 311.231 155.249 309.853 155.796 307.952ZM156.366 297.829C156.295 294.93 155.546 292.732 154.121 291.235C152.695 289.714 150.96 288.954 148.917 288.954C146.73 288.954 144.924 289.75 143.499 291.342C142.073 292.934 141.372 295.096 141.396 297.829H156.366Z" fill="#0D1D3D"/>
<path d="M188.138 302.998L198.403 302C199.021 305.445 200.269 307.976 202.146 309.592C204.047 311.208 206.602 312.016 209.81 312.016C213.208 312.016 215.762 311.303 217.473 309.877C219.208 308.427 220.075 306.74 220.075 304.815C220.075 303.58 219.707 302.534 218.97 301.679C218.257 300.799 216.998 300.039 215.192 299.397C213.956 298.97 211.14 298.209 206.744 297.116C201.089 295.714 197.12 293.991 194.839 291.948C191.631 289.072 190.027 285.567 190.027 281.433C190.027 278.771 190.775 276.288 192.272 273.983C193.793 271.654 195.968 269.884 198.795 268.672C201.647 267.46 205.081 266.854 209.097 266.854C215.655 266.854 220.586 268.292 223.889 271.167C227.216 274.042 228.963 277.88 229.129 282.68L218.578 283.144C218.127 280.458 217.152 278.534 215.655 277.369C214.182 276.181 211.96 275.587 208.99 275.587C205.924 275.587 203.524 276.217 201.79 277.476C200.673 278.284 200.114 279.365 200.114 280.72C200.114 281.955 200.637 283.013 201.683 283.892C203.013 285.009 206.245 286.173 211.378 287.385C216.511 288.597 220.301 289.857 222.749 291.164C225.22 292.447 227.145 294.217 228.523 296.475C229.925 298.708 230.626 301.477 230.626 304.78C230.626 307.774 229.794 310.578 228.131 313.192C226.467 315.806 224.115 317.754 221.073 319.038C218.032 320.297 214.241 320.927 209.703 320.927C203.097 320.927 198.023 319.406 194.482 316.364C190.942 313.299 188.827 308.843 188.138 302.998ZM272.437 293.338L262.563 295.12C262.231 293.148 261.47 291.663 260.282 290.665C259.118 289.667 257.597 289.167 255.72 289.167C253.225 289.167 251.229 290.035 249.731 291.77C248.258 293.48 247.521 296.356 247.521 300.396C247.521 304.887 248.27 308.059 249.767 309.913C251.288 311.766 253.32 312.693 255.862 312.693C257.763 312.693 259.32 312.158 260.532 311.089C261.744 309.996 262.599 308.13 263.098 305.493L272.936 307.168C271.914 311.683 269.954 315.093 267.055 317.398C264.156 319.703 260.27 320.855 255.399 320.855C249.862 320.855 245.442 319.109 242.139 315.616C238.86 312.123 237.22 307.287 237.22 301.108C237.22 294.859 238.872 289.999 242.175 286.53C245.478 283.037 249.945 281.29 255.577 281.29C260.187 281.29 263.847 282.288 266.556 284.284C269.288 286.257 271.249 289.274 272.437 293.338ZM277.748 300.538C277.748 297.211 278.568 293.991 280.208 290.878C281.847 287.765 284.164 285.389 287.158 283.75C290.176 282.11 293.539 281.29 297.246 281.29C302.972 281.29 307.666 283.155 311.325 286.886C314.985 290.593 316.814 295.286 316.814 300.966C316.814 306.693 314.961 311.445 311.254 315.224C307.571 318.978 302.925 320.855 297.317 320.855C293.847 320.855 290.533 320.071 287.372 318.503C284.235 316.935 281.847 314.641 280.208 311.624C278.568 308.582 277.748 304.887 277.748 300.538ZM288.014 301.073C288.014 304.827 288.905 307.703 290.687 309.699C292.469 311.695 294.667 312.693 297.281 312.693C299.895 312.693 302.081 311.695 303.84 309.699C305.622 307.703 306.513 304.804 306.513 301.001C306.513 297.294 305.622 294.443 303.84 292.447C302.081 290.451 299.895 289.453 297.281 289.453C294.667 289.453 292.469 290.451 290.687 292.447C288.905 294.443 288.014 297.318 288.014 301.073ZM324.407 282.146H333.746V287.706C334.958 285.805 336.597 284.26 338.665 283.072C340.732 281.884 343.025 281.29 345.544 281.29C349.94 281.29 353.671 283.013 356.736 286.458C359.802 289.904 361.334 294.704 361.334 300.859C361.334 307.18 359.79 312.099 356.701 315.616C353.611 319.109 349.869 320.855 345.473 320.855C343.382 320.855 341.48 320.44 339.77 319.608C338.082 318.776 336.3 317.35 334.423 315.331V334.4H324.407V282.146ZM334.316 300.431C334.316 304.685 335.16 307.833 336.847 309.877C338.534 311.897 340.589 312.907 343.013 312.907C345.342 312.907 347.279 311.98 348.823 310.126C350.368 308.249 351.14 305.184 351.14 300.93C351.14 296.962 350.344 294.015 348.752 292.09C347.16 290.166 345.188 289.203 342.835 289.203C340.387 289.203 338.356 290.154 336.74 292.055C335.124 293.932 334.316 296.724 334.316 300.431ZM391.24 307.952L401.221 309.627C399.938 313.287 397.906 316.079 395.125 318.004C392.369 319.905 388.911 320.855 384.753 320.855C378.171 320.855 373.299 318.705 370.139 314.404C367.644 310.958 366.396 306.61 366.396 301.358C366.396 295.084 368.036 290.177 371.315 286.637C374.594 283.072 378.741 281.29 383.755 281.29C389.387 281.29 393.83 283.155 397.086 286.886C400.341 290.593 401.898 296.285 401.755 303.96H376.662C376.733 306.93 377.541 309.247 379.085 310.911C380.63 312.55 382.555 313.37 384.86 313.37C386.428 313.37 387.747 312.942 388.816 312.087C389.886 311.231 390.694 309.853 391.24 307.952ZM391.811 297.829C391.739 294.93 390.991 292.732 389.565 291.235C388.139 289.714 386.404 288.954 384.361 288.954C382.175 288.954 380.369 289.75 378.943 291.342C377.517 292.934 376.816 295.096 376.84 297.829H391.811Z" fill="black"/>
<defs>
<linearGradient id="paint0_linear_58_45" x1="129" y1="27" x2="320.077" y2="154.385" gradientUnits="userSpaceOnUse">
<stop stop-color="#16A3EE"/>
<stop offset="1" stop-color="#1557EF"/>
</linearGradient>
<linearGradient id="paint1_linear_58_45" x1="256" y1="177" x2="301.254" y2="217.779" gradientUnits="userSpaceOnUse">
<stop stop-color="#16A3EE"/>
<stop offset="1" stop-color="#1557EF"/>
</linearGradient>
</defs>
</svg>
