<svg width="706" height="229" viewBox="0 0 706 229" fill="none" xmlns="http://www.w3.org/2000/svg">
<path d="M146 78C144 51 119.5 29 89.5 29C54.5 29 30 53.5 30 76C30 91 42.5 101.5 57.5 101.5H115C135 101.5 144.5 117.5 144.5 128C144.5 152.5 121.5 181 90.5 204C57.5 179 36.5 150.5 33.5 124" stroke="url(#paint0_linear_58_44)" stroke-width="16" stroke-linecap="round" stroke-linejoin="round"/>
<path d="M138.5 159L169.5 193" stroke="url(#paint1_linear_58_44)" stroke-width="16" stroke-linecap="round" stroke-linejoin="round"/>
<path d="M87.5 126.5H79.5C78.9477 126.5 78.5 126.948 78.5 127.5V136C78.5 136.552 78.9477 137 79.5 137H87.5C88.0523 137 88.5 136.552 88.5 136V127.5C88.5 126.948 88.0523 126.5 87.5 126.5Z" fill="#57AFE7"/>
<path d="M102.5 126.5H94.5C93.9477 126.5 93.5 126.948 93.5 127.5V136C93.5 136.552 93.9477 137 94.5 137H102.5C103.052 137 103.5 136.552 103.5 136V127.5C103.5 126.948 103.052 126.5 102.5 126.5Z" fill="#57AFE7"/>
<path d="M87.5 141.5H79.5C78.9477 141.5 78.5 141.948 78.5 142.5V151C78.5 151.552 78.9477 152 79.5 152H87.5C88.0523 152 88.5 151.552 88.5 151V142.5C88.5 141.948 88.0523 141.5 87.5 141.5Z" fill="#57AFE7"/>
<path d="M102.5 141.5H94.5C93.9477 141.5 93.5 141.948 93.5 142.5V151C93.5 151.552 93.9477 152 94.5 152H102.5C103.052 152 103.5 151.552 103.5 151V142.5C103.5 141.948 103.052 141.5 102.5 141.5Z" fill="#57AFE7"/>
<path d="M193.788 134.305L206.585 133.061C207.355 137.356 208.91 140.511 211.25 142.525C213.62 144.54 216.805 145.547 220.804 145.547C225.04 145.547 228.224 144.658 230.357 142.881C232.519 141.074 233.601 138.971 233.601 136.571C233.601 135.031 233.141 133.728 232.223 132.661C231.334 131.565 229.764 130.617 227.513 129.817C225.973 129.284 222.463 128.336 216.982 126.974C209.932 125.226 204.985 123.078 202.142 120.531C198.143 116.946 196.143 112.577 196.143 107.423C196.143 104.105 197.076 101.01 198.942 98.1362C200.838 95.2332 203.549 93.0264 207.074 91.5156C210.628 90.0049 214.909 89.2495 219.915 89.2495C228.091 89.2495 234.237 91.0417 238.355 94.626C242.502 98.2103 244.679 102.994 244.887 108.978L231.734 109.556C231.172 106.208 229.957 103.809 228.091 102.357C226.254 100.876 223.485 100.136 219.782 100.136C215.96 100.136 212.969 100.921 210.806 102.491C209.414 103.498 208.718 104.846 208.718 106.534C208.718 108.075 209.369 109.393 210.673 110.489C212.332 111.881 216.36 113.333 222.759 114.843C229.157 116.354 233.882 117.924 236.933 119.553C240.014 121.153 242.413 123.36 244.131 126.174C245.879 128.958 246.753 132.409 246.753 136.527C246.753 140.259 245.716 143.755 243.643 147.013C241.569 150.272 238.636 152.701 234.845 154.3C231.053 155.87 226.328 156.655 220.67 156.655C212.435 156.655 206.111 154.759 201.697 150.968C197.284 147.146 194.647 141.592 193.788 134.305ZM267.059 122.708L255.729 120.664C257.002 116.102 259.194 112.725 262.305 110.533C265.415 108.341 270.036 107.245 276.168 107.245C281.737 107.245 285.884 107.912 288.609 109.245C291.335 110.548 293.245 112.222 294.341 114.266C295.467 116.28 296.03 119.998 296.03 125.418L295.896 139.993C295.896 144.14 296.089 147.206 296.474 149.19C296.889 151.146 297.644 153.249 298.74 155.5H286.388C286.062 154.671 285.662 153.441 285.188 151.812C284.981 151.071 284.833 150.583 284.744 150.346C282.611 152.419 280.33 153.974 277.901 155.011C275.472 156.048 272.88 156.566 270.125 156.566C265.267 156.566 261.431 155.248 258.617 152.612C255.832 149.975 254.44 146.643 254.44 142.614C254.44 139.948 255.077 137.578 256.351 135.505C257.624 133.402 259.402 131.802 261.683 130.706C263.993 129.58 267.311 128.603 271.636 127.773C277.471 126.677 281.515 125.655 283.766 124.708V123.463C283.766 121.064 283.174 119.361 281.989 118.354C280.804 117.317 278.567 116.798 275.279 116.798C273.058 116.798 271.325 117.243 270.081 118.131C268.836 118.99 267.829 120.516 267.059 122.708ZM283.766 132.839C282.167 133.372 279.634 134.009 276.168 134.75C272.702 135.49 270.436 136.216 269.37 136.927C267.74 138.082 266.926 139.548 266.926 141.326C266.926 143.073 267.577 144.584 268.881 145.858C270.184 147.132 271.843 147.769 273.857 147.769C276.109 147.769 278.256 147.028 280.3 145.547C281.811 144.421 282.803 143.044 283.277 141.415C283.603 140.348 283.766 138.319 283.766 135.327V132.839ZM302.917 108.312H309.849V104.757C309.849 100.787 310.263 97.8252 311.093 95.8701C311.952 93.915 313.507 92.3302 315.758 91.1157C318.039 89.8716 320.913 89.2495 324.378 89.2495C327.933 89.2495 331.414 89.7827 334.82 90.8491L333.132 99.5581C331.147 99.0841 329.236 98.8472 327.4 98.8472C325.593 98.8472 324.29 99.2767 323.49 100.136C322.72 100.965 322.334 102.58 322.334 104.979V108.312H331.666V118.131H322.334V155.5H309.849V118.131H302.917V108.312ZM366.013 140.481L378.454 142.57C376.854 147.132 374.322 150.612 370.856 153.012C367.42 155.382 363.11 156.566 357.926 156.566C349.72 156.566 343.648 153.886 339.708 148.524C336.598 144.229 335.042 138.808 335.042 132.261C335.042 124.441 337.086 118.324 341.174 113.91C345.262 109.467 350.431 107.245 356.682 107.245C363.702 107.245 369.242 109.57 373.3 114.221C377.358 118.842 379.298 125.937 379.121 135.505H347.839C347.928 139.208 348.935 142.096 350.861 144.169C352.786 146.213 355.186 147.235 358.059 147.235C360.014 147.235 361.658 146.702 362.991 145.636C364.324 144.569 365.331 142.851 366.013 140.481ZM366.724 127.862C366.635 124.248 365.702 121.508 363.924 119.642C362.147 117.746 359.985 116.798 357.437 116.798C354.712 116.798 352.46 117.791 350.683 119.775C348.906 121.76 348.032 124.456 348.062 127.862H366.724Z" fill="#0D1D3D"/>
<path d="M405.788 134.305L418.585 133.061C419.355 137.356 420.91 140.511 423.25 142.525C425.62 144.54 428.805 145.547 432.804 145.547C437.04 145.547 440.224 144.658 442.357 142.881C444.519 141.074 445.601 138.971 445.601 136.571C445.601 135.031 445.141 133.728 444.223 132.661C443.334 131.565 441.764 130.617 439.513 129.817C437.973 129.284 434.463 128.336 428.982 126.974C421.932 125.226 416.985 123.078 414.142 120.531C410.143 116.946 408.143 112.577 408.143 107.423C408.143 104.105 409.076 101.01 410.942 98.1362C412.838 95.2332 415.549 93.0264 419.074 91.5156C422.628 90.0049 426.909 89.2495 431.915 89.2495C440.091 89.2495 446.237 91.0417 450.355 94.626C454.502 98.2103 456.679 102.994 456.887 108.978L443.734 109.556C443.172 106.208 441.957 103.809 440.091 102.357C438.254 100.876 435.485 100.136 431.782 100.136C427.96 100.136 424.969 100.921 422.806 102.491C421.414 103.498 420.718 104.846 420.718 106.534C420.718 108.075 421.369 109.393 422.673 110.489C424.332 111.881 428.36 113.333 434.759 114.843C441.157 116.354 445.882 117.924 448.933 119.553C452.014 121.153 454.413 123.36 456.131 126.174C457.879 128.958 458.753 132.409 458.753 136.527C458.753 140.259 457.716 143.755 455.643 147.013C453.569 150.272 450.636 152.701 446.845 154.3C443.053 155.87 438.328 156.655 432.67 156.655C424.435 156.655 418.111 154.759 413.697 150.968C409.284 147.146 406.647 141.592 405.788 134.305ZM510.874 122.264L498.565 124.485C498.151 122.027 497.203 120.175 495.722 118.931C494.27 117.687 492.374 117.065 490.034 117.065C486.924 117.065 484.436 118.146 482.569 120.309C480.733 122.441 479.814 126.026 479.814 131.062C479.814 136.66 480.748 140.615 482.614 142.925C484.51 145.236 487.042 146.391 490.212 146.391C492.582 146.391 494.522 145.725 496.033 144.392C497.543 143.029 498.61 140.704 499.232 137.416L511.496 139.504C510.222 145.132 507.778 149.383 504.164 152.256C500.55 155.13 495.707 156.566 489.634 156.566C482.732 156.566 477.222 154.389 473.105 150.035C469.017 145.68 466.973 139.652 466.973 131.95C466.973 124.16 469.032 118.102 473.149 113.777C477.267 109.422 482.836 107.245 489.856 107.245C495.603 107.245 500.165 108.489 503.542 110.978C506.949 113.436 509.392 117.198 510.874 122.264ZM517.494 131.239C517.494 127.092 518.516 123.078 520.56 119.198C522.604 115.317 525.492 112.355 529.225 110.311C532.987 108.267 537.178 107.245 541.799 107.245C548.938 107.245 554.789 109.57 559.351 114.221C563.912 118.842 566.193 124.693 566.193 131.772C566.193 138.911 563.883 144.836 559.262 149.546C554.67 154.226 548.879 156.566 541.888 156.566C537.563 156.566 533.431 155.589 529.491 153.634C525.581 151.679 522.604 148.82 520.56 145.058C518.516 141.266 517.494 136.66 517.494 131.239ZM530.291 131.906C530.291 136.586 531.402 140.17 533.624 142.659C535.845 145.147 538.585 146.391 541.844 146.391C545.102 146.391 547.827 145.147 550.02 142.659C552.241 140.17 553.352 136.556 553.352 131.817C553.352 127.196 552.241 123.641 550.02 121.153C547.827 118.665 545.102 117.42 541.844 117.42C538.585 117.42 535.845 118.665 533.624 121.153C531.402 123.641 530.291 127.225 530.291 131.906ZM575.658 108.312H587.299V115.243C588.81 112.873 590.854 110.948 593.431 109.467C596.008 107.986 598.867 107.245 602.007 107.245C607.487 107.245 612.138 109.393 615.959 113.688C619.78 117.983 621.691 123.967 621.691 131.639C621.691 139.519 619.765 145.651 615.915 150.035C612.064 154.389 607.398 156.566 601.918 156.566C599.311 156.566 596.941 156.048 594.809 155.011C592.705 153.974 590.484 152.197 588.144 149.679V173.451H575.658V108.312ZM588.01 131.106C588.01 136.408 589.062 140.333 591.165 142.881C593.268 145.399 595.831 146.658 598.852 146.658C601.755 146.658 604.169 145.502 606.095 143.192C608.02 140.852 608.983 137.03 608.983 131.728C608.983 126.781 607.991 123.108 606.006 120.708C604.021 118.309 601.562 117.109 598.63 117.109C595.579 117.109 593.046 118.294 591.032 120.664C589.017 123.004 588.01 126.485 588.01 131.106ZM658.971 140.481L671.412 142.57C669.812 147.132 667.28 150.612 663.814 153.012C660.378 155.382 656.068 156.566 650.884 156.566C642.678 156.566 636.606 153.886 632.666 148.524C629.556 144.229 628 138.808 628 132.261C628 124.441 630.044 118.324 634.132 113.91C638.22 109.467 643.389 107.245 649.64 107.245C656.66 107.245 662.2 109.57 666.258 114.221C670.316 118.842 672.256 125.937 672.079 135.505H640.797C640.886 139.208 641.893 142.096 643.819 144.169C645.744 146.213 648.144 147.235 651.017 147.235C652.972 147.235 654.616 146.702 655.949 145.636C657.282 144.569 658.289 142.851 658.971 140.481ZM659.682 127.862C659.593 124.248 658.66 121.508 656.882 119.642C655.105 117.746 652.943 116.798 650.395 116.798C647.67 116.798 645.418 117.791 643.641 119.775C641.864 121.76 640.99 124.456 641.02 127.862H659.682Z" fill="black"/>
<defs>
<linearGradient id="paint0_linear_58_44" x1="30" y1="29" x2="191.181" y2="135.84" gradientUnits="userSpaceOnUse">
<stop stop-color="#16A3EE"/>
<stop offset="1" stop-color="#1557EF"/>
</linearGradient>
<linearGradient id="paint1_linear_58_44" x1="138.5" y1="159" x2="172.355" y2="189.868" gradientUnits="userSpaceOnUse">
<stop stop-color="#16A3EE"/>
<stop offset="1" stop-color="#1557EF"/>
</linearGradient>
</defs>
</svg>
